<?xml version="1.0" standalone="no"?><!DOCTYPE svg PUBLIC "-//W3C//DTD SVG 1.1//EN" "http://www.w3.org/Graphics/SVG/1.1/DTD/svg11.dtd"><svg class="icon" width="200px" height="200.00px" viewBox="0 0 1024 1024" version="1.1" xmlns="http://www.w3.org/2000/svg"><path fill="#333333" d="M514.57142833 62c187.45714248 0 339.42857168 151.97142832 339.42857167 339.42857168s-151.97142832 339.42857168-339.42857168 339.4285708-339.42857168-151.97142832-339.4285708-339.4285708S327.11428584 62 514.57142833 62z m0 64.28571416c-151.956 0-275.14285752 123.18685752-275.14285666 275.14285751s123.18685752 275.14285752 275.14285666 275.14285665 275.14285752-123.18685752 275.14285751-275.14285665S666.52742832 126.28571416 514.57142833 126.28571416z"  /><path fill="#333333" d="M544.14285752 681.68857167l0.21085664 278.05885665-64.28571416 0.0514292-0.21085752-278.05885752z"  /><path fill="#333333" d="M512.11828584 836.66342833l0.19028584 64.28571415-84.82628584 0.24685752c-35.50628584 0.10285752-64.37314248-28.59428584-64.476-64.09542832l149.112-0.43714336zM661.328 836.66342833c0 35.50114248-28.78457167 64.28571416-64.28571416 64.28571415h-10.27542832v-64.28571416h74.56114248z"  /></svg>